<svg width="230" height="230" viewBox="0 0 230 230" fill="none" xmlns="http://www.w3.org/2000/svg">
<g clip-path="url(#clip0_65_545)">
<path d="M185 0H45C20.1472 0 0 20.1472 0 45V185C0 209.853 20.1472 230 45 230H185C209.853 230 230 209.853 230 185V45C230 20.1472 209.853 0 185 0Z" fill="#2C373D"/>
<path d="M47.5 199C62.6878 199 75 186.688 75 171.5C75 156.312 62.6878 144 47.5 144C32.3122 144 20 156.312 20 171.5C20 186.688 32.3122 199 47.5 199Z" fill="white"/>
<path d="M184.5 85C199.688 85 212 72.6878 212 57.5C212 42.3122 199.688 30 184.5 30C169.312 30 157 42.3122 157 57.5C157 72.6878 169.312 85 184.5 85Z" fill="white"/>
<path d="M118.5 87C138.658 87 155 103.342 155 123.5V199H133.1V126.6C133.099 118.536 126.563 112 118.5 112C110.437 112 103.901 118.536 103.9 126.6V199H82V123.5C82 103.342 98.3416 87 118.5 87Z" fill="white"/>
<path d="M197 87H177C168.716 87 162 93.7157 162 102V184C162 192.284 168.716 199 177 199H197C205.284 199 212 192.284 212 184V102C212 93.7157 205.284 87 197 87Z" fill="white"/>
<path d="M168 30C168.252 30 168.504 30.0062 168.753 30.0186C157.775 34.3149 150 44.9996 150 57.5C150 68.3821 155.893 77.8867 164.661 83H114C92.4609 83 75 100.461 75 122V142H34C25.7157 142 19 135.284 19 127V45C19 36.7157 25.7157 30 34 30H168Z" fill="white"/>
<path d="M113 83C113.148 83 113.295 83.0026 113.442 83.0068C92.1604 83.3051 75 100.647 75 122V142H34C25.7157 142 19 135.284 19 127V98C19 89.7157 25.7157 83 34 83H113Z" fill="#91ACBA"/>
<path d="M168 30C168.252 30 168.504 30.0062 168.753 30.0186C157.775 34.3149 150 44.9996 150 57.5C150 68.3821 155.893 77.8867 164.661 83H109C100.716 83 94 76.2843 94 68V45C94 36.7157 100.716 30 109 30H168Z" fill="#91ACBA"/>
</g>
<defs>
<clipPath id="clip0_65_545">
<rect width="230" height="230" fill="white"/>
</clipPath>
</defs>
</svg>
